<?xml version="1.0" encoding="UTF-8"?>
<svg version="1.1" xmlns="http://www.w3.org/2000/svg" width="225" height="225">
<path d="M0 0 C74.25 0 148.5 0 225 0 C225 74.25 225 148.5 225 225 C150.75 225 76.5 225 0 225 C0 150.75 0 76.5 0 0 Z " fill="#FEFEFE" transform="translate(0,0)"/>
<path d="M0 0 C5.89173146 4.71694513 11.04596582 9.54174417 15 16 C15 16.66 15 17.32 15 18 C15.57105469 17.95359375 16.14210937 17.9071875 16.73046875 17.859375 C26.58850021 17.42054371 36.5101973 19.79104202 44.1640625 26.25 C53.1627723 34.8274936 59.49156892 43.89712822 60.203125 56.63671875 C60.47772305 70.66885199 57.73244048 81.10595972 48.2578125 92.00390625 C40.48019461 99.46441096 29.25326178 105.09860779 18.40388489 105.14044189 C17.51114868 105.14615204 16.61841248 105.15186218 15.69862366 105.15774536 C14.24836037 105.15942215 14.24836037 105.15942215 12.76879883 105.16113281 C11.74049957 105.16609772 10.71220032 105.17106262 9.65274048 105.17617798 C6.25416389 105.19077046 2.85563401 105.19759728 -0.54296875 105.203125 C-2.91083273 105.20887947 -5.2786967 105.21463716 -7.64656067 105.22039795 C-12.61211361 105.23090008 -17.57765041 105.23674771 -22.54321289 105.24023438 C-28.8904175 105.2457131 -35.23740695 105.26973141 -41.58454418 105.29820633 C-46.47718418 105.31687758 -51.36977284 105.32204074 -56.26244545 105.32357025 C-58.60149624 105.32658787 -60.94054633 105.33458616 -63.279562 105.34775543 C-66.56048067 105.3649072 -69.84088023 105.36291309 -73.12182617 105.35644531 C-74.07854721 105.3656601 -75.03526825 105.37487488 -76.02098083 105.3843689 C-87.35341561 105.31477295 -96.63149769 101.9584579 -104.94140625 94.18359375 C-112.97760751 85.59197469 -116.31576633 76.46045012 -116.14453125 64.83203125 C-115.60207903 54.20289994 -111.44054756 45.90061335 -103.625 38.625 C-98.74807168 34.55133046 -93.72944142 31.94480664 -87.75 29.875 C-84.09090555 27.38016287 -83.62047654 24.8987527 -82.17578125 20.8203125 C-77.12436344 8.70362259 -66.85261092 -0.3160972 -55.1640625 -5.74609375 C-37.03889801 -12.92902931 -16.10147082 -11.63889089 0 0 Z " fill="#A2ECFC" transform="translate(116,88)"/>
<path d="M0 0 C5.89173146 4.71694513 11.04596582 9.54174417 15 16 C15 16.66 15 17.32 15 18 C15.57105469 17.95359375 16.14210937 17.9071875 16.73046875 17.859375 C26.58850021 17.42054371 36.5101973 19.79104202 44.1640625 26.25 C53.1627723 34.8274936 59.49156892 43.89712822 60.203125 56.63671875 C60.47772305 70.66885199 57.73244048 81.10595972 48.2578125 92.00390625 C40.48019461 99.46441096 29.25326178 105.09860779 18.40388489 105.14044189 C17.51114868 105.14615204 16.61841248 105.15186218 15.69862366 105.15774536 C14.24836037 105.15942215 14.24836037 105.15942215 12.76879883 105.16113281 C11.74049957 105.16609772 10.71220032 105.17106262 9.65274048 105.17617798 C6.25416389 105.19077046 2.85563401 105.19759728 -0.54296875 105.203125 C-2.91083273 105.20887947 -5.2786967 105.21463716 -7.64656067 105.22039795 C-12.61211361 105.23090008 -17.57765041 105.23674771 -22.54321289 105.24023438 C-28.8904175 105.2457131 -35.23740695 105.26973141 -41.58454418 105.29820633 C-46.47718418 105.31687758 -51.36977284 105.32204074 -56.26244545 105.32357025 C-58.60149624 105.32658787 -60.94054633 105.33458616 -63.279562 105.34775543 C-66.56048067 105.3649072 -69.84088023 105.36291309 -73.12182617 105.35644531 C-74.07854721 105.3656601 -75.03526825 105.37487488 -76.02098083 105.3843689 C-87.35341561 105.31477295 -96.63149769 101.9584579 -104.94140625 94.18359375 C-112.97760751 85.59197469 -116.31576633 76.46045012 -116.14453125 64.83203125 C-115.60207903 54.20289994 -111.44054756 45.90061335 -103.625 38.625 C-98.74807168 34.55133046 -93.72944142 31.94480664 -87.75 29.875 C-84.09090555 27.38016287 -83.62047654 24.8987527 -82.17578125 20.8203125 C-77.12436344 8.70362259 -66.85261092 -0.3160972 -55.1640625 -5.74609375 C-37.03889801 -12.92902931 -16.10147082 -11.63889089 0 0 Z M-70.24609375 15.60546875 C-73.91552759 20.61518578 -76.63310054 25.72522332 -77.625 31.875 C-79 35 -79 35 -81.28125 36.140625 C-83.21589091 36.81030839 -85.1621135 37.44723631 -87.1171875 38.0546875 C-96.11295469 41.00451902 -101.96732165 47.20641164 -106.9375 55.0625 C-109.56827957 62.21493195 -109.27037667 71.91636171 -106.4375 78.9375 C-101.91991256 87.3544787 -95.13886406 93.95371198 -86 97 C-84.51706505 97.09894327 -83.03015596 97.14345458 -81.54396057 97.15390015 C-80.63162155 97.16250061 -79.71928253 97.17110107 -78.77929688 97.17996216 C-77.780354 97.18422211 -76.78141113 97.18848206 -75.75219727 97.19287109 C-74.69814194 97.20104858 -73.64408661 97.20922607 -72.55809021 97.21765137 C-69.06086799 97.24251201 -65.56368652 97.25902755 -62.06640625 97.2734375 C-60.272627 97.28142302 -60.272627 97.28142302 -58.44260979 97.28956985 C-52.10701005 97.31631054 -45.77143003 97.33567832 -39.43579102 97.35009766 C-34.20286482 97.36341196 -28.97033086 97.39121775 -23.73754883 97.43212891 C-17.41222007 97.48158111 -11.08724592 97.50623509 -4.7617321 97.51332474 C-2.35732086 97.52001794 0.04708308 97.53518923 2.45138359 97.55921555 C23.45479679 97.98537244 23.45479679 97.98537244 41.375 87.9375 C49.34595036 80.08225698 52.53275966 72.39099351 52.625 61.3125 C52.50138604 54.49578843 51.82418226 48.80955911 48 43 C47.443125 41.989375 46.88625 40.97875 46.3125 39.9375 C40.44566007 32.48502766 34.02790464 26.84764041 24.44140625 25.69140625 C14.01921796 25.20355914 5.87967677 28.74437908 -2.125 35.21875 C-4.07632231 36.96123224 -4.07632231 36.96123224 -5.58203125 39.203125 C-6.04996094 39.79609375 -6.51789063 40.3890625 -7 41 C-9.6875 41.25 -9.6875 41.25 -12 41 C-12.26326005 38.07376327 -12.32760868 36.49141302 -10.671875 34.0078125 C-5.05361407 28.50374386 1.07536664 24.69313779 8 21 C2.09910498 9.43424577 -7.12906796 3.09762244 -19.3671875 -1.17578125 C-38.85165417 -5.59645057 -57.35888905 0.32306641 -70.24609375 15.60546875 Z " fill="#2781C4" transform="translate(116,88)"/>
<path d="M0 0 C9.77074311 7.320809 17.038205 16.72662136 19 29 C20.25274798 42.24382083 18.54596463 53.94713022 10.66015625 65.01953125 C8.06672942 68.11333691 5.18030367 70.51936314 2 73 C1.78085938 72.17757812 1.56171875 71.35515625 1.3359375 70.5078125 C-1.95481492 58.9232938 -6.76657416 48.06672359 -17.38671875 41.53125 C-23.04344994 38.55128747 -28.94139888 35.91544581 -35.4375 36.05078125 C-38.25272344 36.06365575 -40.33289979 35.93305902 -43 35 C-45.39156754 32.46388717 -47.174866 29.79743067 -49.05859375 26.8671875 C-52.8307288 21.29626773 -58.07502475 17.1476431 -64 14 C-59.8058349 4.84909432 -51.31805631 -1.45434254 -42 -5 C-27.37128448 -10.02862096 -13.19608825 -8.45308529 0 0 Z " fill="#FED206" transform="translate(174,71)"/>
<path d="M0 0 C6.16044164 3.87227761 8.7691198 10.30735941 11 17 C12.39698715 29.67745412 11.2036273 39.63378506 3.46484375 50.0703125 C-1.70052675 55.93370605 -11.15382397 61.61099412 -19.05912113 62.13701439 C-19.85454539 62.14258669 -20.64996965 62.14815899 -21.46949768 62.15390015 C-22.38472702 62.16250061 -23.29995636 62.17110107 -24.24291992 62.17996216 C-25.24500488 62.18422211 -26.24708984 62.18848206 -27.27954102 62.19287109 C-28.86544289 62.20513733 -28.86544289 62.20513733 -30.48338318 62.21765137 C-33.99021845 62.24250768 -37.49701314 62.25902458 -41.00390625 62.2734375 C-42.20225538 62.27876118 -43.40060452 62.28408485 -44.63526726 62.28956985 C-50.98152909 62.31630601 -57.32777124 62.33567705 -63.67407227 62.35009766 C-70.21876896 62.36672117 -76.76295974 62.4114792 -83.30746555 62.4624691 C-88.34765681 62.49618595 -93.38772881 62.50768018 -98.42802238 62.51332474 C-100.83966869 62.52002783 -103.25130741 62.53522512 -105.6628437 62.55921555 C-109.04720901 62.59095525 -112.43022122 62.59088957 -115.81469727 62.58349609 C-116.80261261 62.59990143 -117.79052795 62.61630676 -118.80838013 62.63320923 C-127.59119801 62.55506784 -134.38430075 59.60125941 -140.875 53.6875 C-144.2443854 50.05525475 -148 45.14880112 -148 40 C-147.34 40.268125 -146.68 40.53625 -146 40.8125 C-145.01 41.204375 -144.02 41.59625 -143 42 C-141.83551331 42.5108313 -140.67102661 43.0216626 -139.47125244 43.54797363 C-134.47132385 45.40643152 -129.74637648 45.43617978 -124.45996094 45.41992188 C-122.92167381 45.43262619 -122.92167381 45.43262619 -121.35231018 45.44558716 C-117.97953711 45.46888604 -114.6072223 45.46998081 -111.234375 45.46875 C-108.87558818 45.47585696 -106.51680307 45.48355674 -104.15802002 45.49182129 C-99.2187418 45.50525065 -94.27962337 45.50684224 -89.34033203 45.50097656 C-83.03467494 45.49508883 -76.72979001 45.52564204 -70.42428207 45.56609344 C-65.55297775 45.59204372 -60.68185738 45.59484105 -55.81049347 45.59120178 C-53.48704339 45.59288684 -51.16358425 45.60246968 -48.84020233 45.62034607 C-29.88658926 46.07160553 -29.88658926 46.07160553 -13.32537842 37.83044434 C-11 36 -11 36 -9 36 C-8.58041016 35.11828125 -8.58041016 35.11828125 -8.15234375 34.21875 C-7.08536836 32.16437026 -5.89234407 30.38912429 -4.5625 28.5 C1.04593064 19.51319719 1.50856973 10.25100393 0 0 Z " fill="#87DEF2" transform="translate(157,123)"/>
<path d="M0 0 C2.46447681 2.17045029 3.57058188 4.44277121 4.98828125 7.3984375 C5.49746094 8.43613281 6.00664062 9.47382812 6.53125 10.54296875 C10.85528831 20.90735595 10.0968964 34.6037829 6.0625 44.9375 C2.5266144 52.35957566 -1.73180379 57.54135383 -8.19921875 62.5859375 C-8.52792969 61.35230469 -8.52792969 61.35230469 -8.86328125 60.09375 C-12.15403367 48.5092313 -16.96579291 37.65266109 -27.5859375 31.1171875 C-32.67082191 28.43847351 -37.57696584 26.73121124 -43.19921875 25.5859375 C-40.51125708 22.72505478 -37.9163944 20.63313408 -34.5234375 18.66796875 C-33.61964355 18.13953369 -32.71584961 17.61109863 -31.78466797 17.06665039 C-30.82834473 16.51614014 -29.87202148 15.96562988 -28.88671875 15.3984375 C-26.90308585 14.24836114 -24.92001516 13.09731455 -22.9375 11.9453125 C-21.96377441 11.38005859 -20.99004883 10.81480469 -19.98681641 10.23242188 C-17.47949275 8.75148032 -15.01107954 7.22756606 -12.5546875 5.6640625 C-11.8738208 5.23504639 -11.1929541 4.80603027 -10.49145508 4.36401367 C-9.24235286 3.57205137 -8.00078651 2.76803571 -6.76831055 1.95043945 C-2.81462644 -0.52992967 -2.81462644 -0.52992967 0 0 Z " fill="#FEC007" transform="translate(184.19921875,81.4140625)"/>
<path d="M0 0 C9.53429204 5.29682891 9.53429204 5.29682891 11.3125 10.75 C11.333125 11.45125 11.35375 12.1525 11.375 12.875 C8.85156167 11.86562467 6.33043642 10.85630104 3.82421875 9.8046875 C-9.58822143 4.6825392 -21.39679884 6.05947063 -34.625 10.875 C-35.95299939 11.22898659 -37.28449526 11.5717906 -38.625 11.875 C-29.37257721 -0.28632844 -14.837524 -4.99481006 0 0 Z " fill="#FBFEFE" transform="translate(99.625,95.125)"/>
<path d="M0 0 C2.18314756 1.65577453 3.92825258 3.18289184 5.8125 5.125 C6.31458984 5.599375 6.81667969 6.07375 7.33398438 6.5625 C9.8459665 9.09157044 10.95157343 10.69317514 11.51171875 14.2421875 C11.34285156 15.15226563 11.17398438 16.06234375 11 17 C8 19 8 19 5.6796875 18.94921875 C2.07790551 17.67336886 -0.23199343 15.46599469 -2.875 12.8125 C-3.38546875 12.34263672 -3.8959375 11.87277344 -4.421875 11.38867188 C-5.8671875 9.95703125 -5.8671875 9.95703125 -8 7 C-7.9453125 3.69921875 -7.9453125 3.69921875 -7 1 C-4.33927267 -0.33036367 -2.96541319 -0.41456561 0 0 Z " fill="#FEC10B" transform="translate(193,148)"/>
<path d="M0 0 C2.265625 0.4140625 2.265625 0.4140625 4.265625 2.4140625 C4.42896884 6.4976586 4.07708642 8.41260902 1.48046875 11.6171875 C-5.15762245 18.31551547 -5.15762245 18.31551547 -9.734375 18.6015625 C-12.734375 18.4140625 -12.734375 18.4140625 -14.734375 16.4140625 C-14.66736577 12.42701318 -13.98803338 10.71623943 -11.40625 7.640625 C-9.95992187 6.35285156 -9.95992187 6.35285156 -8.484375 5.0390625 C-7.53046875 4.16507813 -6.5765625 3.29109375 -5.59375 2.390625 C-2.734375 0.4140625 -2.734375 0.4140625 0 0 Z " fill="#FEC20F" transform="translate(201.734375,52.5859375)"/>
<path d="M0 0 C3.625 0.375 3.625 0.375 7 1 C8.88114194 7.89752045 6.76752065 13.55549077 4 20 C2 22 2 22 -0.5 22.25 C-3 22 -3 22 -5 20 C-5.57178918 13.59596121 -4.41496583 7.95986979 -2 2 C-1.34 1.34 -0.68 0.68 0 0 Z " fill="#FEC10C" transform="translate(166,33)"/>
<path d="M0 0 C13.7427052 1.6723927 13.7427052 1.6723927 18.15234375 6.08203125 C17.58416193 11.65021307 17.58416193 11.65021307 16.15234375 13.08203125 C9.35445382 13.83735235 3.43253439 11.54854146 -2.84765625 9.08203125 C-3.84765625 8.08203125 -3.84765625 8.08203125 -4.03515625 5.14453125 C-3.83707304 1.90917208 -3.55843856 0.15798564 0 0 Z " fill="#FEC10B" transform="translate(205.84765625,120.91796875)"/>
<path d="M0 0 C2.4375 0.75 2.4375 0.75 4.4375 2.75 C5.08182378 4.83056975 5.63243635 6.94087217 6.125 9.0625 C6.39699219 10.19300781 6.66898438 11.32351562 6.94921875 12.48828125 C7.42391198 15.65923201 7.35304844 17.70372064 6.4375 20.75 C5.4375 21.75 5.4375 21.75 2.5 21.9375 C-0.5625 21.75 -0.5625 21.75 -2.5625 19.75 C-3.4140625 17.140625 -3.4140625 17.140625 -4.1875 14 C-4.44789062 12.97390625 -4.70828125 11.9478125 -4.9765625 10.890625 C-5.5705184 7.70702137 -5.88507332 4.97573324 -5.5625 1.75 C-2.5625 -0.25 -2.5625 -0.25 0 0 Z " fill="#FEC10A" transform="translate(131.5625,32.25)"/>
<path d="M0 0 C0.66 0.66 1.32 1.32 2 2 C1.67028521 5.29714793 1.3773161 6.6226839 -1 9 C-6.40501336 10.92531522 -12.23328244 12.73932276 -18 12 C-20 10 -20 10 -20.3125 7 C-20.209375 6.01 -20.10625 5.02 -20 4 C-16.93151341 1.95434227 -14.67006349 1.21865713 -11.125 0.3125 C-10.09632813 0.04050781 -9.06765625 -0.23148437 -8.0078125 -0.51171875 C-4.92055611 -1.01289674 -2.96726263 -0.93566992 0 0 Z " fill="#FEC10B" transform="translate(223,87)"/>
<path d="M0 0 C4.26283796 0.59063418 6.27835895 2.63203472 9.1171875 5.63671875 C9.61476563 6.11947266 10.11234375 6.60222656 10.625 7.09960938 C12.87895853 9.40620155 14.16400255 10.96844992 14.6875 14.1875 C14.2421875 16.44921875 14.2421875 16.44921875 12.2421875 18.44921875 C8.33119803 19.02902978 6.74355865 18.81112146 3.50390625 16.47265625 C2.65441406 15.59867188 1.80492188 14.7246875 0.9296875 13.82421875 C0.06730469 12.96570312 -0.79507813 12.1071875 -1.68359375 11.22265625 C-3.98113223 8.15061798 -4.64563242 6.26334161 -4.7578125 2.44921875 C-2.7578125 0.44921875 -2.7578125 0.44921875 0 0 Z " fill="#FFC10A" transform="translate(96.7578125,50.55078125)"/>
</svg>
